<svg xmlns="http://www.w3.org/2000/svg" xmlns:xlink="http://www.w3.org/1999/xlink" width="259.615" height="282.023" viewBox="0 0 259.615 282.023">
  <defs>
    <clipPath id="clip-path">
      <rect id="Rectangle_1307" data-name="Rectangle 1307" width="218.777" height="282.023" transform="translate(-32.838 -7.401)" fill="none"/>
    </clipPath>
  </defs>
  <g id="Group_16841" data-name="Group 16841" transform="translate(80.342 -650.599)">
    <g id="Group_3862" data-name="Group 3862" transform="translate(-47.504 658)">
      <g id="Group_3861" data-name="Group 3861" clip-path="url(#clip-path)">
        <path id="Path_29520" data-name="Path 29520" d="M118.709,205.89a31.567,31.567,0,1,1-31.567,31.567,31.6,31.6,0,0,1,31.567-31.567m0-13a44.567,44.567,0,1,0,44.567,44.567,44.567,44.567,0,0,0-44.567-44.567" fill="#65a1f2"/>
        <path id="Path_29522" data-name="Path 29522" d="M185.939,103.015a44.566,44.566,0,1,0,0,89.133Z" fill="#333a94"/>
        <path id="Path_29523" data-name="Path 29523" d="M0,205.031A102.016,102.016,0,0,0,102.016,103.015,102.016,102.016,0,0,0,0,1" fill="none" stroke="#333a94" stroke-width="2"/>
      </g>
    </g>
    <path id="Path_29524" data-name="Path 29524" d="M202.358,172.449a16.42,16.42,0,1,0-16.419-16.419,16.419,16.419,0,0,0,16.419,16.419" transform="translate(-39.504 652)" fill="#e59724"/>
  </g>
</svg>
